<mxfile host="app.diagrams.net" agent="Mozilla/5.0 (Windows NT 10.0; Win64; x64) AppleWebKit/537.36 (KHTML, like Gecko) Chrome/130.0.0.0 Safari/537.36" version="24.8.3">
  <diagram name="StrÃ¡nka-1" id="-_9v5eID9Npz3uLiCwEH">
    <mxGraphModel dx="500" dy="269" grid="1" gridSize="10" guides="1" tooltips="1" connect="1" arrows="1" fold="1" page="1" pageScale="1" pageWidth="827" pageHeight="1169" math="0" shadow="0">
      <root>
        <mxCell id="0" />
        <mxCell id="1" parent="0" />
        <mxCell id="UTw3ULWgcbPNzV8K0Oq_-37" value="" style="endArrow=openThin;html=1;rounded=0;exitX=0.5;exitY=0;exitDx=0;exitDy=0;entryX=0.5;entryY=1;entryDx=0;entryDy=0;endFill=0;" edge="1" parent="1" source="UTw3ULWgcbPNzV8K0Oq_-19" target="UTw3ULWgcbPNzV8K0Oq_-2">
          <mxGeometry width="50" height="50" relative="1" as="geometry">
            <mxPoint x="540" y="430" as="sourcePoint" />
            <mxPoint x="650" y="260" as="targetPoint" />
          </mxGeometry>
        </mxCell>
        <mxCell id="UTw3ULWgcbPNzV8K0Oq_-36" value="" style="endArrow=openThin;html=1;rounded=0;exitX=0.5;exitY=0;exitDx=0;exitDy=0;entryX=0.5;entryY=1;entryDx=0;entryDy=0;endFill=0;" edge="1" parent="1" source="UTw3ULWgcbPNzV8K0Oq_-19" target="UTw3ULWgcbPNzV8K0Oq_-6">
          <mxGeometry width="50" height="50" relative="1" as="geometry">
            <mxPoint x="530" y="420" as="sourcePoint" />
            <mxPoint x="640" y="250" as="targetPoint" />
          </mxGeometry>
        </mxCell>
        <mxCell id="UTw3ULWgcbPNzV8K0Oq_-35" value="" style="endArrow=openThin;html=1;rounded=0;exitX=0.5;exitY=0;exitDx=0;exitDy=0;entryX=0.5;entryY=1;entryDx=0;entryDy=0;endFill=0;" edge="1" parent="1" source="UTw3ULWgcbPNzV8K0Oq_-19" target="UTw3ULWgcbPNzV8K0Oq_-7">
          <mxGeometry width="50" height="50" relative="1" as="geometry">
            <mxPoint x="520" y="410" as="sourcePoint" />
            <mxPoint x="630" y="240" as="targetPoint" />
          </mxGeometry>
        </mxCell>
        <mxCell id="UTw3ULWgcbPNzV8K0Oq_-34" value="" style="endArrow=openThin;html=1;rounded=0;exitX=0.5;exitY=0;exitDx=0;exitDy=0;entryX=0.5;entryY=1;entryDx=0;entryDy=0;endFill=0;" edge="1" parent="1" source="UTw3ULWgcbPNzV8K0Oq_-19" target="UTw3ULWgcbPNzV8K0Oq_-11">
          <mxGeometry width="50" height="50" relative="1" as="geometry">
            <mxPoint x="470" y="510" as="sourcePoint" />
            <mxPoint x="450" y="340" as="targetPoint" />
          </mxGeometry>
        </mxCell>
        <mxCell id="UTw3ULWgcbPNzV8K0Oq_-33" value="" style="endArrow=openThin;html=1;rounded=0;exitX=0.5;exitY=0;exitDx=0;exitDy=0;entryX=0.5;entryY=1;entryDx=0;entryDy=0;endFill=0;" edge="1" parent="1" source="UTw3ULWgcbPNzV8K0Oq_-19" target="UTw3ULWgcbPNzV8K0Oq_-10">
          <mxGeometry width="50" height="50" relative="1" as="geometry">
            <mxPoint x="460" y="500" as="sourcePoint" />
            <mxPoint x="440" y="330" as="targetPoint" />
          </mxGeometry>
        </mxCell>
        <mxCell id="UTw3ULWgcbPNzV8K0Oq_-28" value="" style="endArrow=openThin;html=1;rounded=0;exitX=0.5;exitY=0;exitDx=0;exitDy=0;entryX=0.5;entryY=1;entryDx=0;entryDy=0;endFill=0;" edge="1" parent="1" source="UTw3ULWgcbPNzV8K0Oq_-17" target="UTw3ULWgcbPNzV8K0Oq_-7">
          <mxGeometry width="50" height="50" relative="1" as="geometry">
            <mxPoint x="410" y="450" as="sourcePoint" />
            <mxPoint x="390" y="280" as="targetPoint" />
          </mxGeometry>
        </mxCell>
        <mxCell id="UTw3ULWgcbPNzV8K0Oq_-27" value="" style="endArrow=openThin;html=1;rounded=0;exitX=0.5;exitY=0;exitDx=0;exitDy=0;entryX=0.5;entryY=1;entryDx=0;entryDy=0;endFill=0;" edge="1" parent="1" source="UTw3ULWgcbPNzV8K0Oq_-17" target="UTw3ULWgcbPNzV8K0Oq_-11">
          <mxGeometry width="50" height="50" relative="1" as="geometry">
            <mxPoint x="400" y="440" as="sourcePoint" />
            <mxPoint x="380" y="270" as="targetPoint" />
          </mxGeometry>
        </mxCell>
        <mxCell id="UTw3ULWgcbPNzV8K0Oq_-26" value="" style="endArrow=openThin;html=1;rounded=0;exitX=0.5;exitY=0;exitDx=0;exitDy=0;entryX=0.5;entryY=1;entryDx=0;entryDy=0;endFill=0;" edge="1" parent="1" source="UTw3ULWgcbPNzV8K0Oq_-17" target="UTw3ULWgcbPNzV8K0Oq_-6">
          <mxGeometry width="50" height="50" relative="1" as="geometry">
            <mxPoint x="390" y="430" as="sourcePoint" />
            <mxPoint x="370" y="260" as="targetPoint" />
          </mxGeometry>
        </mxCell>
        <mxCell id="UTw3ULWgcbPNzV8K0Oq_-25" value="" style="endArrow=openThin;html=1;rounded=0;exitX=0.5;exitY=0;exitDx=0;exitDy=0;entryX=0.5;entryY=1;entryDx=0;entryDy=0;endFill=0;" edge="1" parent="1" source="UTw3ULWgcbPNzV8K0Oq_-17" target="UTw3ULWgcbPNzV8K0Oq_-2">
          <mxGeometry width="50" height="50" relative="1" as="geometry">
            <mxPoint x="380" y="420" as="sourcePoint" />
            <mxPoint x="360" y="250" as="targetPoint" />
          </mxGeometry>
        </mxCell>
        <mxCell id="UTw3ULWgcbPNzV8K0Oq_-24" value="" style="endArrow=openThin;html=1;rounded=0;exitX=0.5;exitY=0;exitDx=0;exitDy=0;entryX=0.5;entryY=1;entryDx=0;entryDy=0;endFill=0;" edge="1" parent="1" source="UTw3ULWgcbPNzV8K0Oq_-17" target="UTw3ULWgcbPNzV8K0Oq_-10">
          <mxGeometry width="50" height="50" relative="1" as="geometry">
            <mxPoint x="370" y="410" as="sourcePoint" />
            <mxPoint x="350" y="240" as="targetPoint" />
          </mxGeometry>
        </mxCell>
        <mxCell id="UTw3ULWgcbPNzV8K0Oq_-23" value="" style="endArrow=openThin;html=1;rounded=0;exitX=0.5;exitY=0;exitDx=0;exitDy=0;entryX=0.5;entryY=1;entryDx=0;entryDy=0;endFill=0;" edge="1" parent="1" source="UTw3ULWgcbPNzV8K0Oq_-17" target="UTw3ULWgcbPNzV8K0Oq_-8">
          <mxGeometry width="50" height="50" relative="1" as="geometry">
            <mxPoint x="370" y="410" as="sourcePoint" />
            <mxPoint x="605" y="340" as="targetPoint" />
          </mxGeometry>
        </mxCell>
        <mxCell id="UTw3ULWgcbPNzV8K0Oq_-2" value="&lt;font style=&quot;font-size: 14px;&quot; face=&quot;Times New Roman&quot;&gt;Neuron&lt;/font&gt;" style="ellipse;whiteSpace=wrap;html=1;" vertex="1" parent="1">
          <mxGeometry x="330" y="110" width="70" height="40" as="geometry" />
        </mxCell>
        <mxCell id="UTw3ULWgcbPNzV8K0Oq_-5" value="" style="endArrow=none;html=1;rounded=0;opacity=50;" edge="1" parent="1">
          <mxGeometry width="50" height="50" relative="1" as="geometry">
            <mxPoint x="200" y="360" as="sourcePoint" />
            <mxPoint x="200" y="360" as="targetPoint" />
            <Array as="points">
              <mxPoint x="640" y="360" />
              <mxPoint x="720" y="80" />
              <mxPoint x="320" y="80" />
            </Array>
          </mxGeometry>
        </mxCell>
        <mxCell id="UTw3ULWgcbPNzV8K0Oq_-6" value="&lt;font style=&quot;font-size: 14px;&quot; face=&quot;Times New Roman&quot;&gt;Neuron&lt;/font&gt;" style="ellipse;whiteSpace=wrap;html=1;" vertex="1" parent="1">
          <mxGeometry x="460" y="110" width="70" height="40" as="geometry" />
        </mxCell>
        <mxCell id="UTw3ULWgcbPNzV8K0Oq_-7" value="&lt;font style=&quot;font-size: 14px;&quot; face=&quot;Times New Roman&quot;&gt;Neuron&lt;/font&gt;" style="ellipse;whiteSpace=wrap;html=1;" vertex="1" parent="1">
          <mxGeometry x="600" y="110" width="70" height="40" as="geometry" />
        </mxCell>
        <mxCell id="UTw3ULWgcbPNzV8K0Oq_-8" value="&lt;font style=&quot;font-size: 14px;&quot; face=&quot;Times New Roman&quot;&gt;Neuron&lt;/font&gt;" style="ellipse;whiteSpace=wrap;html=1;" vertex="1" parent="1">
          <mxGeometry x="300" y="180" width="80" height="50" as="geometry" />
        </mxCell>
        <mxCell id="UTw3ULWgcbPNzV8K0Oq_-10" value="&lt;font style=&quot;font-size: 14px;&quot; face=&quot;Times New Roman&quot;&gt;Neuron&lt;/font&gt;" style="ellipse;whiteSpace=wrap;html=1;" vertex="1" parent="1">
          <mxGeometry x="440" y="180" width="80" height="50" as="geometry" />
        </mxCell>
        <mxCell id="UTw3ULWgcbPNzV8K0Oq_-11" value="&lt;font style=&quot;font-size: 14px;&quot; face=&quot;Times New Roman&quot;&gt;Neuron&lt;/font&gt;" style="ellipse;whiteSpace=wrap;html=1;" vertex="1" parent="1">
          <mxGeometry x="580" y="180" width="80" height="50" as="geometry" />
        </mxCell>
        <mxCell id="UTw3ULWgcbPNzV8K0Oq_-12" value="&lt;font style=&quot;font-size: 14px;&quot; face=&quot;Times New Roman&quot;&gt;Neuron&lt;/font&gt;" style="ellipse;whiteSpace=wrap;html=1;" vertex="1" parent="1">
          <mxGeometry x="270" y="270" width="90" height="60" as="geometry" />
        </mxCell>
        <mxCell id="UTw3ULWgcbPNzV8K0Oq_-15" value="&lt;font style=&quot;font-size: 14px;&quot; face=&quot;Times New Roman&quot;&gt;Neuron&lt;/font&gt;" style="ellipse;whiteSpace=wrap;html=1;" vertex="1" parent="1">
          <mxGeometry x="420" y="270" width="90" height="60" as="geometry" />
        </mxCell>
        <mxCell id="UTw3ULWgcbPNzV8K0Oq_-16" value="&lt;font face=&quot;Times New Roman&quot; style=&quot;font-size: 14px;&quot;&gt;Neuron&lt;/font&gt;" style="ellipse;whiteSpace=wrap;html=1;" vertex="1" parent="1">
          <mxGeometry x="550" y="270" width="90" height="60" as="geometry" />
        </mxCell>
        <mxCell id="UTw3ULWgcbPNzV8K0Oq_-17" value="&lt;font size=&quot;1&quot; face=&quot;Times New Roman&quot; style=&quot;&quot;&gt;&lt;b style=&quot;font-size: 20px;&quot;&gt;X&lt;/b&gt;&lt;/font&gt;" style="text;html=1;align=center;verticalAlign=middle;whiteSpace=wrap;rounded=0;fontSize=16;" vertex="1" parent="1">
          <mxGeometry x="330" y="400" width="60" height="30" as="geometry" />
        </mxCell>
        <mxCell id="UTw3ULWgcbPNzV8K0Oq_-18" style="edgeStyle=orthogonalEdgeStyle;rounded=0;orthogonalLoop=1;jettySize=auto;html=1;exitX=0.5;exitY=1;exitDx=0;exitDy=0;" edge="1" parent="1" source="UTw3ULWgcbPNzV8K0Oq_-17" target="UTw3ULWgcbPNzV8K0Oq_-17">
          <mxGeometry relative="1" as="geometry" />
        </mxCell>
        <mxCell id="UTw3ULWgcbPNzV8K0Oq_-19" value="&lt;font size=&quot;1&quot; face=&quot;Times New Roman&quot; style=&quot;&quot;&gt;&lt;b style=&quot;font-size: 20px;&quot;&gt;Y&lt;/b&gt;&lt;/font&gt;" style="text;html=1;align=center;verticalAlign=middle;whiteSpace=wrap;rounded=0;fontSize=16;" vertex="1" parent="1">
          <mxGeometry x="480" y="400" width="60" height="30" as="geometry" />
        </mxCell>
        <mxCell id="UTw3ULWgcbPNzV8K0Oq_-20" value="" style="endArrow=openThin;html=1;rounded=0;exitX=0.5;exitY=0;exitDx=0;exitDy=0;entryX=0.5;entryY=1;entryDx=0;entryDy=0;endFill=0;" edge="1" parent="1" source="UTw3ULWgcbPNzV8K0Oq_-17" target="UTw3ULWgcbPNzV8K0Oq_-12">
          <mxGeometry width="50" height="50" relative="1" as="geometry">
            <mxPoint x="540" y="310" as="sourcePoint" />
            <mxPoint x="400" y="320" as="targetPoint" />
          </mxGeometry>
        </mxCell>
        <mxCell id="UTw3ULWgcbPNzV8K0Oq_-21" value="" style="endArrow=openThin;html=1;rounded=0;exitX=0.5;exitY=0;exitDx=0;exitDy=0;entryX=0.5;entryY=1;entryDx=0;entryDy=0;endFill=0;" edge="1" parent="1" source="UTw3ULWgcbPNzV8K0Oq_-17" target="UTw3ULWgcbPNzV8K0Oq_-15">
          <mxGeometry width="50" height="50" relative="1" as="geometry">
            <mxPoint x="370" y="410" as="sourcePoint" />
            <mxPoint x="325" y="340" as="targetPoint" />
          </mxGeometry>
        </mxCell>
        <mxCell id="UTw3ULWgcbPNzV8K0Oq_-22" value="" style="endArrow=openThin;html=1;rounded=0;exitX=0.5;exitY=0;exitDx=0;exitDy=0;entryX=0.5;entryY=1;entryDx=0;entryDy=0;endFill=0;" edge="1" parent="1" source="UTw3ULWgcbPNzV8K0Oq_-17" target="UTw3ULWgcbPNzV8K0Oq_-16">
          <mxGeometry width="50" height="50" relative="1" as="geometry">
            <mxPoint x="370" y="410" as="sourcePoint" />
            <mxPoint x="475" y="340" as="targetPoint" />
          </mxGeometry>
        </mxCell>
        <mxCell id="UTw3ULWgcbPNzV8K0Oq_-29" value="" style="endArrow=openThin;html=1;rounded=0;exitX=0.5;exitY=0;exitDx=0;exitDy=0;entryX=0.5;entryY=1;entryDx=0;entryDy=0;endFill=0;" edge="1" parent="1" source="UTw3ULWgcbPNzV8K0Oq_-19" target="UTw3ULWgcbPNzV8K0Oq_-12">
          <mxGeometry width="50" height="50" relative="1" as="geometry">
            <mxPoint x="420" y="460" as="sourcePoint" />
            <mxPoint x="400" y="290" as="targetPoint" />
          </mxGeometry>
        </mxCell>
        <mxCell id="UTw3ULWgcbPNzV8K0Oq_-30" value="" style="endArrow=openThin;html=1;rounded=0;exitX=0.5;exitY=0;exitDx=0;exitDy=0;entryX=0.5;entryY=1;entryDx=0;entryDy=0;endFill=0;" edge="1" parent="1" source="UTw3ULWgcbPNzV8K0Oq_-19" target="UTw3ULWgcbPNzV8K0Oq_-15">
          <mxGeometry width="50" height="50" relative="1" as="geometry">
            <mxPoint x="430" y="470" as="sourcePoint" />
            <mxPoint x="410" y="300" as="targetPoint" />
          </mxGeometry>
        </mxCell>
        <mxCell id="UTw3ULWgcbPNzV8K0Oq_-31" value="" style="endArrow=openThin;html=1;rounded=0;exitX=0.5;exitY=0;exitDx=0;exitDy=0;entryX=0.5;entryY=1;entryDx=0;entryDy=0;endFill=0;" edge="1" parent="1" source="UTw3ULWgcbPNzV8K0Oq_-19" target="UTw3ULWgcbPNzV8K0Oq_-16">
          <mxGeometry width="50" height="50" relative="1" as="geometry">
            <mxPoint x="440" y="480" as="sourcePoint" />
            <mxPoint x="420" y="310" as="targetPoint" />
          </mxGeometry>
        </mxCell>
        <mxCell id="UTw3ULWgcbPNzV8K0Oq_-32" value="" style="endArrow=openThin;html=1;rounded=0;exitX=0.5;exitY=0;exitDx=0;exitDy=0;entryX=0.5;entryY=1;entryDx=0;entryDy=0;endFill=0;" edge="1" parent="1" source="UTw3ULWgcbPNzV8K0Oq_-19" target="UTw3ULWgcbPNzV8K0Oq_-8">
          <mxGeometry width="50" height="50" relative="1" as="geometry">
            <mxPoint x="450" y="490" as="sourcePoint" />
            <mxPoint x="430" y="320" as="targetPoint" />
          </mxGeometry>
        </mxCell>
        <mxCell id="UTw3ULWgcbPNzV8K0Oq_-38" value="" style="endArrow=none;html=1;rounded=0;" edge="1" parent="1">
          <mxGeometry width="50" height="50" relative="1" as="geometry">
            <mxPoint x="200" y="600" as="sourcePoint" />
            <mxPoint x="200" y="720" as="targetPoint" />
            <Array as="points">
              <mxPoint x="160" y="600" />
              <mxPoint x="160" y="720" />
            </Array>
          </mxGeometry>
        </mxCell>
        <mxCell id="UTw3ULWgcbPNzV8K0Oq_-39" value="" style="endArrow=none;html=1;rounded=0;" edge="1" parent="1">
          <mxGeometry width="50" height="50" relative="1" as="geometry">
            <mxPoint x="240" y="720" as="sourcePoint" />
            <mxPoint x="240" y="600" as="targetPoint" />
            <Array as="points">
              <mxPoint x="280" y="720" />
              <mxPoint x="280" y="600" />
            </Array>
          </mxGeometry>
        </mxCell>
        <mxCell id="UTw3ULWgcbPNzV8K0Oq_-40" value="w(x1)" style="text;html=1;align=center;verticalAlign=middle;whiteSpace=wrap;rounded=0;fontFamily=Times New Roman;" vertex="1" parent="1">
          <mxGeometry x="160" y="610" width="40" height="20" as="geometry" />
        </mxCell>
        <mxCell id="UTw3ULWgcbPNzV8K0Oq_-43" value="w(x2)" style="text;html=1;align=center;verticalAlign=middle;whiteSpace=wrap;rounded=0;fontFamily=Times New Roman;" vertex="1" parent="1">
          <mxGeometry x="200" y="610" width="40" height="20" as="geometry" />
        </mxCell>
        <mxCell id="UTw3ULWgcbPNzV8K0Oq_-44" value="w(x3)" style="text;html=1;align=center;verticalAlign=middle;whiteSpace=wrap;rounded=0;fontFamily=Times New Roman;" vertex="1" parent="1">
          <mxGeometry x="240" y="610" width="40" height="20" as="geometry" />
        </mxCell>
        <mxCell id="UTw3ULWgcbPNzV8K0Oq_-45" value="w(x7)" style="text;html=1;align=center;verticalAlign=middle;whiteSpace=wrap;rounded=0;fontFamily=Times New Roman;" vertex="1" parent="1">
          <mxGeometry x="160" y="690" width="40" height="20" as="geometry" />
        </mxCell>
        <mxCell id="UTw3ULWgcbPNzV8K0Oq_-46" value="w(x8)" style="text;html=1;align=center;verticalAlign=middle;whiteSpace=wrap;rounded=0;fontFamily=Times New Roman;" vertex="1" parent="1">
          <mxGeometry x="200" y="690" width="40" height="20" as="geometry" />
        </mxCell>
        <mxCell id="UTw3ULWgcbPNzV8K0Oq_-47" value="w(x9)" style="text;html=1;align=center;verticalAlign=middle;whiteSpace=wrap;rounded=0;fontFamily=Times New Roman;" vertex="1" parent="1">
          <mxGeometry x="240" y="690" width="40" height="20" as="geometry" />
        </mxCell>
        <mxCell id="UTw3ULWgcbPNzV8K0Oq_-48" value="w(x4)" style="text;html=1;align=center;verticalAlign=middle;whiteSpace=wrap;rounded=0;fontFamily=Times New Roman;" vertex="1" parent="1">
          <mxGeometry x="160" y="650" width="40" height="20" as="geometry" />
        </mxCell>
        <mxCell id="UTw3ULWgcbPNzV8K0Oq_-49" value="w(x5)" style="text;html=1;align=center;verticalAlign=middle;whiteSpace=wrap;rounded=0;fontFamily=Times New Roman;" vertex="1" parent="1">
          <mxGeometry x="200" y="650" width="40" height="20" as="geometry" />
        </mxCell>
        <mxCell id="UTw3ULWgcbPNzV8K0Oq_-50" value="w(x6)" style="text;html=1;align=center;verticalAlign=middle;whiteSpace=wrap;rounded=0;fontFamily=Times New Roman;" vertex="1" parent="1">
          <mxGeometry x="240" y="650" width="40" height="20" as="geometry" />
        </mxCell>
        <mxCell id="UTw3ULWgcbPNzV8K0Oq_-51" value="" style="endArrow=none;html=1;rounded=0;" edge="1" parent="1">
          <mxGeometry width="50" height="50" relative="1" as="geometry">
            <mxPoint x="360" y="600" as="sourcePoint" />
            <mxPoint x="360" y="720" as="targetPoint" />
            <Array as="points">
              <mxPoint x="320" y="600" />
              <mxPoint x="320" y="720" />
            </Array>
          </mxGeometry>
        </mxCell>
        <mxCell id="UTw3ULWgcbPNzV8K0Oq_-52" value="" style="endArrow=none;html=1;rounded=0;" edge="1" parent="1">
          <mxGeometry width="50" height="50" relative="1" as="geometry">
            <mxPoint x="400" y="720" as="sourcePoint" />
            <mxPoint x="400" y="600" as="targetPoint" />
            <Array as="points">
              <mxPoint x="440" y="720" />
              <mxPoint x="440" y="600" />
            </Array>
          </mxGeometry>
        </mxCell>
        <mxCell id="UTw3ULWgcbPNzV8K0Oq_-53" value="w(y1)" style="text;html=1;align=center;verticalAlign=middle;whiteSpace=wrap;rounded=0;fontFamily=Times New Roman;" vertex="1" parent="1">
          <mxGeometry x="320" y="610" width="40" height="20" as="geometry" />
        </mxCell>
        <mxCell id="UTw3ULWgcbPNzV8K0Oq_-54" value="w(y2)" style="text;html=1;align=center;verticalAlign=middle;whiteSpace=wrap;rounded=0;fontFamily=Times New Roman;" vertex="1" parent="1">
          <mxGeometry x="360" y="610" width="40" height="20" as="geometry" />
        </mxCell>
        <mxCell id="UTw3ULWgcbPNzV8K0Oq_-55" value="w(y3)" style="text;html=1;align=center;verticalAlign=middle;whiteSpace=wrap;rounded=0;fontFamily=Times New Roman;" vertex="1" parent="1">
          <mxGeometry x="400" y="610" width="40" height="20" as="geometry" />
        </mxCell>
        <mxCell id="UTw3ULWgcbPNzV8K0Oq_-56" value="w(y7)" style="text;html=1;align=center;verticalAlign=middle;whiteSpace=wrap;rounded=0;fontFamily=Times New Roman;" vertex="1" parent="1">
          <mxGeometry x="320" y="690" width="40" height="20" as="geometry" />
        </mxCell>
        <mxCell id="UTw3ULWgcbPNzV8K0Oq_-57" value="w(y8)" style="text;html=1;align=center;verticalAlign=middle;whiteSpace=wrap;rounded=0;fontFamily=Times New Roman;" vertex="1" parent="1">
          <mxGeometry x="360" y="690" width="40" height="20" as="geometry" />
        </mxCell>
        <mxCell id="UTw3ULWgcbPNzV8K0Oq_-58" value="w(y9)" style="text;html=1;align=center;verticalAlign=middle;whiteSpace=wrap;rounded=0;fontFamily=Times New Roman;" vertex="1" parent="1">
          <mxGeometry x="400" y="690" width="40" height="20" as="geometry" />
        </mxCell>
        <mxCell id="UTw3ULWgcbPNzV8K0Oq_-59" value="w(y4)" style="text;html=1;align=center;verticalAlign=middle;whiteSpace=wrap;rounded=0;fontFamily=Times New Roman;" vertex="1" parent="1">
          <mxGeometry x="320" y="650" width="40" height="20" as="geometry" />
        </mxCell>
        <mxCell id="UTw3ULWgcbPNzV8K0Oq_-60" value="w(y5)" style="text;html=1;align=center;verticalAlign=middle;whiteSpace=wrap;rounded=0;fontFamily=Times New Roman;" vertex="1" parent="1">
          <mxGeometry x="360" y="650" width="40" height="20" as="geometry" />
        </mxCell>
        <mxCell id="UTw3ULWgcbPNzV8K0Oq_-61" value="w(y6)" style="text;html=1;align=center;verticalAlign=middle;whiteSpace=wrap;rounded=0;fontFamily=Times New Roman;" vertex="1" parent="1">
          <mxGeometry x="400" y="650" width="40" height="20" as="geometry" />
        </mxCell>
        <mxCell id="UTw3ULWgcbPNzV8K0Oq_-62" value="" style="endArrow=classic;html=1;rounded=0;opacity=50;" edge="1" parent="1">
          <mxGeometry width="50" height="50" relative="1" as="geometry">
            <mxPoint x="560" y="720" as="sourcePoint" />
            <mxPoint x="560" y="520" as="targetPoint" />
          </mxGeometry>
        </mxCell>
        <mxCell id="UTw3ULWgcbPNzV8K0Oq_-65" value="&lt;font face=&quot;Times New Roman&quot;&gt;Y&lt;/font&gt;" style="edgeLabel;html=1;align=center;verticalAlign=middle;resizable=0;points=[];" vertex="1" connectable="0" parent="UTw3ULWgcbPNzV8K0Oq_-62">
          <mxGeometry x="0.3511" relative="1" as="geometry">
            <mxPoint x="-10" y="-55" as="offset" />
          </mxGeometry>
        </mxCell>
        <mxCell id="UTw3ULWgcbPNzV8K0Oq_-63" value="" style="endArrow=classic;html=1;rounded=0;opacity=50;" edge="1" parent="1">
          <mxGeometry width="50" height="50" relative="1" as="geometry">
            <mxPoint x="560" y="720" as="sourcePoint" />
            <mxPoint x="760" y="720" as="targetPoint" />
          </mxGeometry>
        </mxCell>
        <mxCell id="UTw3ULWgcbPNzV8K0Oq_-64" value="X" style="edgeLabel;html=1;align=center;verticalAlign=middle;resizable=0;points=[];fontFamily=Times New Roman;" vertex="1" connectable="0" parent="UTw3ULWgcbPNzV8K0Oq_-63">
          <mxGeometry x="0.4606" y="1" relative="1" as="geometry">
            <mxPoint x="54" y="11" as="offset" />
          </mxGeometry>
        </mxCell>
        <mxCell id="UTw3ULWgcbPNzV8K0Oq_-66" value="n" style="ellipse;whiteSpace=wrap;html=1;aspect=fixed;fontFamily=Times New Roman;" vertex="1" parent="1">
          <mxGeometry x="612.5" y="652.5" width="15" height="15" as="geometry" />
        </mxCell>
        <mxCell id="UTw3ULWgcbPNzV8K0Oq_-68" value="n" style="ellipse;whiteSpace=wrap;html=1;aspect=fixed;fontFamily=Times New Roman;fillColor=#64ff61;" vertex="1" parent="1">
          <mxGeometry x="700" y="652.5" width="15" height="15" as="geometry" />
        </mxCell>
        <mxCell id="UTw3ULWgcbPNzV8K0Oq_-69" value="n" style="ellipse;whiteSpace=wrap;html=1;aspect=fixed;fontFamily=Times New Roman;" vertex="1" parent="1">
          <mxGeometry x="612.5" y="560" width="15" height="15" as="geometry" />
        </mxCell>
        <mxCell id="UTw3ULWgcbPNzV8K0Oq_-70" value="n" style="ellipse;whiteSpace=wrap;html=1;aspect=fixed;fontFamily=Times New Roman;" vertex="1" parent="1">
          <mxGeometry x="700" y="560" width="15" height="15" as="geometry" />
        </mxCell>
        <mxCell id="UTw3ULWgcbPNzV8K0Oq_-71" value="i" style="ellipse;whiteSpace=wrap;html=1;aspect=fixed;fontFamily=Times New Roman;fontColor=#000000;fillColor=#76a8f9;" vertex="1" parent="1">
          <mxGeometry x="740" y="667.5" width="15" height="15" as="geometry" />
        </mxCell>
        <mxCell id="UTw3ULWgcbPNzV8K0Oq_-73" value="" style="endArrow=openThin;startArrow=openThin;html=1;rounded=0;startFill=0;endFill=0;entryX=0;entryY=0.5;entryDx=0;entryDy=0;exitX=1;exitY=0.5;exitDx=0;exitDy=0;" edge="1" parent="1" source="UTw3ULWgcbPNzV8K0Oq_-68" target="UTw3ULWgcbPNzV8K0Oq_-71">
          <mxGeometry width="50" height="50" relative="1" as="geometry">
            <mxPoint x="600" y="660" as="sourcePoint" />
            <mxPoint x="650" y="610" as="targetPoint" />
          </mxGeometry>
        </mxCell>
        <mxCell id="UTw3ULWgcbPNzV8K0Oq_-74" value="&lt;font face=&quot;Times New Roman&quot;&gt;distance&lt;/font&gt;" style="edgeLabel;html=1;align=center;verticalAlign=middle;resizable=0;points=[];rotation=-55;" vertex="1" connectable="0" parent="UTw3ULWgcbPNzV8K0Oq_-73">
          <mxGeometry x="0.0877" y="1" relative="1" as="geometry">
            <mxPoint x="-14" y="23" as="offset" />
          </mxGeometry>
        </mxCell>
        <mxCell id="UTw3ULWgcbPNzV8K0Oq_-76" value="&lt;font color=&quot;#000000&quot; face=&quot;Times New Roman&quot; style=&quot;font-size: 11px;&quot;&gt;winner&lt;/font&gt;" style="text;html=1;align=center;verticalAlign=middle;whiteSpace=wrap;rounded=0;fontColor=#00ff00;" vertex="1" parent="1">
          <mxGeometry x="677.5" y="620" width="60" height="30" as="geometry" />
        </mxCell>
        <mxCell id="UTw3ULWgcbPNzV8K0Oq_-77" value="X" style="text;html=1;align=center;verticalAlign=middle;whiteSpace=wrap;rounded=0;fontFamily=Times New Roman;" vertex="1" parent="1">
          <mxGeometry x="190" y="570" width="60" height="30" as="geometry" />
        </mxCell>
        <mxCell id="UTw3ULWgcbPNzV8K0Oq_-78" value="Y" style="text;html=1;align=center;verticalAlign=middle;whiteSpace=wrap;rounded=0;fontFamily=Times New Roman;" vertex="1" parent="1">
          <mxGeometry x="354" y="570" width="60" height="30" as="geometry" />
        </mxCell>
        <mxCell id="UTw3ULWgcbPNzV8K0Oq_-79" value="n" style="ellipse;whiteSpace=wrap;html=1;aspect=fixed;fontFamily=Times New Roman;fillColor=#6496ff;" vertex="1" parent="1">
          <mxGeometry x="280" y="800" width="15" height="15" as="geometry" />
        </mxCell>
        <mxCell id="UTw3ULWgcbPNzV8K0Oq_-83" value="n" style="ellipse;whiteSpace=wrap;html=1;aspect=fixed;fontFamily=Times New Roman;fillColor=#64ff64;" vertex="1" parent="1">
          <mxGeometry x="320" y="840" width="15" height="15" as="geometry" />
        </mxCell>
        <mxCell id="UTw3ULWgcbPNzV8K0Oq_-98" value="n" style="ellipse;whiteSpace=wrap;html=1;aspect=fixed;fontFamily=Times New Roman;fillColor=#ff6464;" vertex="1" parent="1">
          <mxGeometry x="400" y="760" width="15" height="15" as="geometry" />
        </mxCell>
        <mxCell id="UTw3ULWgcbPNzV8K0Oq_-104" value="n" style="ellipse;whiteSpace=wrap;html=1;aspect=fixed;fontFamily=Times New Roman;fillColor=#6496ff;" vertex="1" parent="1">
          <mxGeometry x="320" y="800" width="15" height="15" as="geometry" />
        </mxCell>
        <mxCell id="UTw3ULWgcbPNzV8K0Oq_-105" value="n" style="ellipse;whiteSpace=wrap;html=1;aspect=fixed;fontFamily=Times New Roman;fillColor=#6496ff;" vertex="1" parent="1">
          <mxGeometry x="360" y="800" width="15" height="15" as="geometry" />
        </mxCell>
        <mxCell id="UTw3ULWgcbPNzV8K0Oq_-106" value="n" style="ellipse;whiteSpace=wrap;html=1;aspect=fixed;fontFamily=Times New Roman;fillColor=#6496ff;" vertex="1" parent="1">
          <mxGeometry x="280" y="880" width="15" height="15" as="geometry" />
        </mxCell>
        <mxCell id="UTw3ULWgcbPNzV8K0Oq_-107" value="n" style="ellipse;whiteSpace=wrap;html=1;aspect=fixed;fontFamily=Times New Roman;fillColor=#6496ff;" vertex="1" parent="1">
          <mxGeometry x="320" y="880" width="15" height="15" as="geometry" />
        </mxCell>
        <mxCell id="UTw3ULWgcbPNzV8K0Oq_-108" value="n" style="ellipse;whiteSpace=wrap;html=1;aspect=fixed;fontFamily=Times New Roman;fillColor=#6496ff;" vertex="1" parent="1">
          <mxGeometry x="360" y="880" width="15" height="15" as="geometry" />
        </mxCell>
        <mxCell id="UTw3ULWgcbPNzV8K0Oq_-109" value="n" style="ellipse;whiteSpace=wrap;html=1;aspect=fixed;fontFamily=Times New Roman;fillColor=#6496ff;" vertex="1" parent="1">
          <mxGeometry x="280" y="840" width="15" height="15" as="geometry" />
        </mxCell>
        <mxCell id="UTw3ULWgcbPNzV8K0Oq_-110" value="n" style="ellipse;whiteSpace=wrap;html=1;aspect=fixed;fontFamily=Times New Roman;fillColor=#6496ff;" vertex="1" parent="1">
          <mxGeometry x="360" y="840" width="15" height="15" as="geometry" />
        </mxCell>
        <mxCell id="UTw3ULWgcbPNzV8K0Oq_-111" value="n" style="ellipse;whiteSpace=wrap;html=1;aspect=fixed;fontFamily=Times New Roman;fillColor=#ff6464;" vertex="1" parent="1">
          <mxGeometry x="360" y="760" width="15" height="15" as="geometry" />
        </mxCell>
        <mxCell id="UTw3ULWgcbPNzV8K0Oq_-112" value="n" style="ellipse;whiteSpace=wrap;html=1;aspect=fixed;fontFamily=Times New Roman;fillColor=#ff6464;" vertex="1" parent="1">
          <mxGeometry x="320" y="760" width="15" height="15" as="geometry" />
        </mxCell>
        <mxCell id="UTw3ULWgcbPNzV8K0Oq_-113" value="n" style="ellipse;whiteSpace=wrap;html=1;aspect=fixed;fontFamily=Times New Roman;fillColor=#ff6464;" vertex="1" parent="1">
          <mxGeometry x="280" y="760" width="15" height="15" as="geometry" />
        </mxCell>
        <mxCell id="UTw3ULWgcbPNzV8K0Oq_-114" value="n" style="ellipse;whiteSpace=wrap;html=1;aspect=fixed;fontFamily=Times New Roman;fillColor=#ff6464;" vertex="1" parent="1">
          <mxGeometry x="400" y="920" width="15" height="15" as="geometry" />
        </mxCell>
        <mxCell id="UTw3ULWgcbPNzV8K0Oq_-115" value="n" style="ellipse;whiteSpace=wrap;html=1;aspect=fixed;fontFamily=Times New Roman;fillColor=#ff6464;" vertex="1" parent="1">
          <mxGeometry x="360" y="920" width="15" height="15" as="geometry" />
        </mxCell>
        <mxCell id="UTw3ULWgcbPNzV8K0Oq_-116" value="n" style="ellipse;whiteSpace=wrap;html=1;aspect=fixed;fontFamily=Times New Roman;fillColor=#ff6464;" vertex="1" parent="1">
          <mxGeometry x="320" y="920" width="15" height="15" as="geometry" />
        </mxCell>
        <mxCell id="UTw3ULWgcbPNzV8K0Oq_-117" value="n" style="ellipse;whiteSpace=wrap;html=1;aspect=fixed;fontFamily=Times New Roman;fillColor=#ff6464;" vertex="1" parent="1">
          <mxGeometry x="280" y="920" width="15" height="15" as="geometry" />
        </mxCell>
        <mxCell id="UTw3ULWgcbPNzV8K0Oq_-118" value="n" style="ellipse;whiteSpace=wrap;html=1;aspect=fixed;fontFamily=Times New Roman;fillColor=#ff6464;" vertex="1" parent="1">
          <mxGeometry x="400" y="880" width="15" height="15" as="geometry" />
        </mxCell>
        <mxCell id="UTw3ULWgcbPNzV8K0Oq_-119" value="n" style="ellipse;whiteSpace=wrap;html=1;aspect=fixed;fontFamily=Times New Roman;fillColor=#ff6464;" vertex="1" parent="1">
          <mxGeometry x="400" y="840" width="15" height="15" as="geometry" />
        </mxCell>
        <mxCell id="UTw3ULWgcbPNzV8K0Oq_-120" value="n" style="ellipse;whiteSpace=wrap;html=1;aspect=fixed;fontFamily=Times New Roman;fillColor=#ff6464;" vertex="1" parent="1">
          <mxGeometry x="400" y="800" width="15" height="15" as="geometry" />
        </mxCell>
        <mxCell id="UTw3ULWgcbPNzV8K0Oq_-121" value="n" style="ellipse;whiteSpace=wrap;html=1;aspect=fixed;fontFamily=Times New Roman;fillColor=#ff6464;" vertex="1" parent="1">
          <mxGeometry x="240" y="760" width="15" height="15" as="geometry" />
        </mxCell>
        <mxCell id="UTw3ULWgcbPNzV8K0Oq_-122" value="n" style="ellipse;whiteSpace=wrap;html=1;aspect=fixed;fontFamily=Times New Roman;fillColor=#ff6464;" vertex="1" parent="1">
          <mxGeometry x="240" y="920" width="15" height="15" as="geometry" />
        </mxCell>
        <mxCell id="UTw3ULWgcbPNzV8K0Oq_-123" value="n" style="ellipse;whiteSpace=wrap;html=1;aspect=fixed;fontFamily=Times New Roman;fillColor=#ff6464;" vertex="1" parent="1">
          <mxGeometry x="240" y="880" width="15" height="15" as="geometry" />
        </mxCell>
        <mxCell id="UTw3ULWgcbPNzV8K0Oq_-124" value="n" style="ellipse;whiteSpace=wrap;html=1;aspect=fixed;fontFamily=Times New Roman;fillColor=#ff6464;" vertex="1" parent="1">
          <mxGeometry x="240" y="840" width="15" height="15" as="geometry" />
        </mxCell>
        <mxCell id="UTw3ULWgcbPNzV8K0Oq_-125" value="n" style="ellipse;whiteSpace=wrap;html=1;aspect=fixed;fontFamily=Times New Roman;fillColor=#ff6464;" vertex="1" parent="1">
          <mxGeometry x="240" y="800" width="15" height="15" as="geometry" />
        </mxCell>
        <mxCell id="UTw3ULWgcbPNzV8K0Oq_-126" value="" style="ellipse;whiteSpace=wrap;html=1;aspect=fixed;fontFamily=Times New Roman;fillColor=#64ff64;" vertex="1" parent="1">
          <mxGeometry x="440" y="840" width="15" height="15" as="geometry" />
        </mxCell>
        <mxCell id="UTw3ULWgcbPNzV8K0Oq_-127" value="" style="ellipse;whiteSpace=wrap;html=1;aspect=fixed;fontFamily=Times New Roman;fillColor=#6496ff;" vertex="1" parent="1">
          <mxGeometry x="440" y="880" width="15" height="15" as="geometry" />
        </mxCell>
        <mxCell id="UTw3ULWgcbPNzV8K0Oq_-128" value="" style="ellipse;whiteSpace=wrap;html=1;aspect=fixed;fontFamily=Times New Roman;fillColor=#ff6464;" vertex="1" parent="1">
          <mxGeometry x="440" y="920" width="15" height="15" as="geometry" />
        </mxCell>
        <mxCell id="UTw3ULWgcbPNzV8K0Oq_-129" value="&lt;font style=&quot;font-size: 10px;&quot;&gt;Surrounding 0&lt;/font&gt;" style="text;html=1;align=center;verticalAlign=middle;whiteSpace=wrap;rounded=0;fontFamily=Times New Roman;" vertex="1" parent="1">
          <mxGeometry x="460" y="832.5" width="60" height="30" as="geometry" />
        </mxCell>
        <mxCell id="UTw3ULWgcbPNzV8K0Oq_-130" value="&lt;font style=&quot;font-size: 10px;&quot;&gt;Surrounding 1&lt;/font&gt;" style="text;html=1;align=center;verticalAlign=middle;whiteSpace=wrap;rounded=0;fontFamily=Times New Roman;" vertex="1" parent="1">
          <mxGeometry x="460" y="872.5" width="60" height="30" as="geometry" />
        </mxCell>
        <mxCell id="UTw3ULWgcbPNzV8K0Oq_-131" value="&lt;font style=&quot;font-size: 10px;&quot;&gt;Surrounding 2&lt;/font&gt;" style="text;html=1;align=center;verticalAlign=middle;whiteSpace=wrap;rounded=0;fontFamily=Times New Roman;" vertex="1" parent="1">
          <mxGeometry x="460" y="912.5" width="60" height="30" as="geometry" />
        </mxCell>
        <mxCell id="UTw3ULWgcbPNzV8K0Oq_-132" value="&lt;font style=&quot;font-size: 10px;&quot;&gt;Winner&lt;/font&gt;" style="text;html=1;align=center;verticalAlign=middle;whiteSpace=wrap;rounded=0;fontFamily=Times New Roman;" vertex="1" parent="1">
          <mxGeometry x="420" y="810" width="60" height="30" as="geometry" />
        </mxCell>
      </root>
    </mxGraphModel>
  </diagram>
</mxfile>
